<svg width="57" height="39" viewBox="0 0 57 39" fill="none" xmlns="http://www.w3.org/2000/svg">
<g opacity="0.5" filter="url(#filter0_f_2_457)">
<rect width="57" height="39" fill="white"/>
<rect x="43.8462" width="13.1538" height="39" fill="#D52B1E"/>
<rect width="13.1538" height="39" fill="#D52B1E"/>
<path fill-rule="evenodd" clip-rule="evenodd" d="M27.9519 33.2222H29.0481L28.8654 27.0833L29.5962 26.7222L35.0787 27.8056L34.3462 25.6389L40.9231 20.2222L39.0962 19.5L40.5577 15.1667L36.5385 16.25L35.8077 14.0833L32.8846 17.3333H32.1539L33.6154 9.75L31.4231 11.1944L31.0577 11.211L28.5 6.5L25.9423 11.1944H25.5769L23.3846 9.75L24.8462 17.3333H24.1154L21.1923 14.0833L20.4616 16.25L16.4423 15.1667L17.9039 19.5L16.0769 20.2222L22.6554 25.6389L21.9231 27.8056L27.4039 26.7222L28.1346 27.0833L27.9519 33.2222Z" fill="#D52B1E"/>
</g>
<defs>
<filter id="filter0_f_2_457" x="-30" y="-30" width="117" height="99" filterUnits="userSpaceOnUse" color-interpolation-filters="sRGB">
<feFlood flood-opacity="0" result="BackgroundImageFix"/>
<feBlend mode="normal" in="SourceGraphic" in2="BackgroundImageFix" result="shape"/>
<feGaussianBlur stdDeviation="15" result="effect1_foregroundBlur_2_457"/>
</filter>
</defs>
</svg>
