<svg width="26" height="26" viewBox="0 0 26 26" fill="none" xmlns="http://www.w3.org/2000/svg">
<path d="M18.3486 3.07031H7.5153C6.32363 3.07031 5.34863 4.04531 5.34863 5.23698V22.236C5.34863 22.3815 5.50868 22.4701 5.63194 22.3929L12.932 17.8203L20.232 22.3929C20.3552 22.4701 20.5153 22.3815 20.5153 22.236V5.23698C20.5153 4.04531 19.5403 3.07031 18.3486 3.07031ZM18.3486 18.4453L13.0244 15.3737C12.9672 15.3406 12.8967 15.3406 12.8395 15.3737L7.5153 18.4453V6.32031C7.5153 5.72448 8.0028 5.23698 8.59863 5.23698H17.2653C17.8611 5.23698 18.3486 5.72448 18.3486 6.32031V18.4453Z" fill="#275F9E"/>
<path d="M19.9804 5.23673C19.9802 4.34081 19.2446 3.60576 18.3486 3.60576H7.51505C6.61921 3.60589 5.88421 4.34089 5.88408 5.23673V21.6032L12.6477 17.3667L12.9322 17.189L19.9804 21.6032V5.23673ZM6.98035 6.32031C6.98035 5.42884 7.70716 4.70203 8.59863 4.70203V5.23673C8.0028 5.23673 7.51505 5.72448 7.51505 6.32031V18.4451L12.8396 15.3736C12.8968 15.3406 12.9676 15.3406 13.0248 15.3736L18.3486 18.4451V6.32031C18.3486 5.72448 17.8609 5.23673 17.265 5.23673V4.70203C18.1565 4.70203 18.8841 5.42884 18.8841 6.32031V19.3718L12.9315 15.9381L6.98035 19.3718V6.32031ZM17.265 4.70203V5.23673H8.59863V4.70203H17.265ZM20.515 22.2358C20.515 22.3629 20.393 22.4468 20.2798 22.4142L20.232 22.3926L12.9322 17.82L5.63166 22.3926C5.50842 22.4697 5.34863 22.3812 5.34863 22.2358V5.23673C5.34877 4.04526 6.32358 3.07045 7.51505 3.07031H18.3486C19.5402 3.07031 20.5149 4.04518 20.515 5.23673V22.2358Z" fill="#275F9E"/>
</svg>
