<svg width="27" height="30" viewBox="0 0 27 30" fill="none" xmlns="http://www.w3.org/2000/svg">
<path fill-rule="evenodd" clip-rule="evenodd" d="M24.3584 2.60025C24.4809 2.46016 24.5746 2.29732 24.6342 2.12101C24.6938 1.94471 24.718 1.75839 24.7056 1.57271C24.6932 1.38703 24.6443 1.20561 24.5618 1.03882C24.4792 0.872032 24.3646 0.723132 24.2245 0.600625C24.0845 0.478118 23.9216 0.384403 23.7453 0.324831C23.569 0.265258 23.3827 0.240995 23.197 0.253427C23.0113 0.265858 22.8299 0.314741 22.6631 0.397283C22.4963 0.479826 22.3474 0.594412 22.2249 0.7345L14.9857 9.00783L8.84167 0.816667C8.70971 0.640722 8.5386 0.497917 8.34189 0.399561C8.14517 0.301205 7.92826 0.25 7.70833 0.25H2.04167C1.77858 0.25 1.52068 0.323262 1.29688 0.461578C1.07308 0.599894 0.89222 0.797797 0.774562 1.03311C0.656904 1.26843 0.607098 1.53186 0.630725 1.79389C0.654352 2.05592 0.750479 2.30619 0.908334 2.51667L10.0274 14.6745L2.39158 23.4012C2.26908 23.5413 2.17536 23.7041 2.11579 23.8804C2.05622 24.0567 2.03195 24.243 2.04439 24.4287C2.05682 24.6144 2.1057 24.7958 2.18824 24.9626C2.27078 25.1294 2.38537 25.2783 2.52546 25.4008C2.66555 25.5233 2.82839 25.617 3.0047 25.6766C3.181 25.7362 3.36732 25.7604 3.553 25.748C3.73868 25.7356 3.9201 25.6867 4.08689 25.6041C4.25368 25.5216 4.40258 25.407 4.52508 25.2669L11.7643 16.9922L17.9083 25.1833C18.0403 25.3593 18.2114 25.5021 18.4081 25.6004C18.6048 25.6988 18.8217 25.75 19.0417 25.75H24.7083C24.9714 25.75 25.2293 25.6767 25.4531 25.5384C25.6769 25.4001 25.8578 25.2022 25.9754 24.9669C26.0931 24.7316 26.1429 24.4681 26.1193 24.2061C26.0956 23.9441 25.9995 23.6938 25.8417 23.4833L16.7226 11.3255L24.3584 2.60025ZM19.75 22.9167L4.875 3.08333H7L21.875 22.9167H19.75Z" fill="white"/>
</svg>
