<svg width="18" height="20" viewBox="0 0 18 20" fill="none" xmlns="http://www.w3.org/2000/svg">
<path d="M2.93262 0.558594H15.0664C15.6719 0.558612 16.2543 0.80408 16.6846 1.24414C17.1151 1.68447 17.3574 2.28354 17.3574 2.90918V17.0908C17.3574 17.7165 17.1151 18.3155 16.6846 18.7559C16.2543 19.1959 15.6719 19.4414 15.0664 19.4414H2.93262C2.32742 19.4413 1.74561 19.1956 1.31543 18.7559C0.884889 18.3155 0.641602 17.7165 0.641602 17.0908V2.90918C0.641602 2.28354 0.884889 1.68447 1.31543 1.24414C1.74561 0.804363 2.32742 0.558699 2.93262 0.558594ZM2.93262 1.71387C2.6189 1.71397 2.31932 1.84177 2.09961 2.06641C1.88002 2.29098 1.75781 2.5945 1.75781 2.90918V17.0908C1.75781 17.4055 1.88002 17.709 2.09961 17.9336C2.31932 18.1582 2.6189 18.286 2.93262 18.2861H15.0664C15.3802 18.2861 15.6796 18.1582 15.8994 17.9336C16.119 17.709 16.2412 17.4055 16.2412 17.0908V2.90918C16.2412 2.59451 16.119 2.29098 15.8994 2.06641C15.6796 1.84179 15.3802 1.71389 15.0664 1.71387H2.93262Z" fill="#275F9E" stroke="#275F9E" stroke-width="0.616897"/>
<path d="M4.83301 14.5938H8.16699C8.30324 14.5938 8.43609 14.6501 8.53516 14.752C8.63436 14.8541 8.69133 14.9945 8.69141 15.1426C8.69141 15.2908 8.63455 15.4319 8.53516 15.5342C8.43609 15.6361 8.30324 15.6913 8.16699 15.6914H4.83301C4.69676 15.6913 4.56391 15.6361 4.46484 15.5342C4.36545 15.4319 4.30859 15.2908 4.30859 15.1426C4.30867 14.9945 4.36564 14.8541 4.46484 14.752C4.56391 14.6501 4.69676 14.5938 4.83301 14.5938ZM4.83301 11.166H13.167C13.3032 11.1661 13.4361 11.2213 13.5352 11.3232C13.6344 11.4254 13.6913 11.5658 13.6914 11.7139C13.6914 11.8621 13.6345 12.0032 13.5352 12.1055C13.4361 12.2074 13.3032 12.2626 13.167 12.2627H4.83301C4.69676 12.2626 4.56391 12.2074 4.46484 12.1055C4.36549 12.0032 4.30859 11.8621 4.30859 11.7139C4.3087 11.5658 4.36563 11.4254 4.46484 11.3232C4.56391 11.2213 4.69676 11.1661 4.83301 11.166ZM4.83301 7.7373H13.167C13.3032 7.73739 13.4361 7.79263 13.5352 7.89453C13.6345 7.99679 13.6914 8.13792 13.6914 8.28613C13.6913 8.43416 13.6344 8.5746 13.5352 8.67676C13.4361 8.77866 13.3032 8.8339 13.167 8.83398H4.83301C4.69676 8.8339 4.56391 8.77866 4.46484 8.67676C4.36563 8.5746 4.3087 8.43416 4.30859 8.28613C4.30859 8.13792 4.36549 7.9968 4.46484 7.89453C4.56391 7.79263 4.69676 7.73739 4.83301 7.7373ZM4.83301 4.30859H13.167C13.3032 4.30868 13.4361 4.36392 13.5352 4.46582C13.6345 4.56809 13.6914 4.70917 13.6914 4.85742C13.6913 5.00546 13.6344 5.14586 13.5352 5.24805C13.4361 5.34995 13.3032 5.40616 13.167 5.40625H4.83301C4.69676 5.40616 4.56391 5.34995 4.46484 5.24805C4.36564 5.14586 4.30867 5.00546 4.30859 4.85742C4.30859 4.70917 4.36545 4.56809 4.46484 4.46582C4.56391 4.36392 4.69676 4.30868 4.83301 4.30859Z" fill="#275F9E" stroke="#275F9E" stroke-width="0.616897"/>
</svg>
