<svg width="23" height="21" viewBox="0 0 23 21" fill="none" xmlns="http://www.w3.org/2000/svg">
<path d="M15.3335 12.6528H14.4683L14.1616 12.362C15.2722 11.0956 15.8825 9.47879 15.8812 7.80664C15.8812 6.42217 15.4636 5.0688 14.6814 3.91765C13.8991 2.76651 12.7873 1.8693 11.4865 1.33949C10.1856 0.809674 8.75422 0.67105 7.37326 0.941147C5.9923 1.21124 4.72381 1.87793 3.72819 2.8569C2.73257 3.83586 2.05455 5.08314 1.77986 6.44101C1.50517 7.79888 1.64615 9.20635 2.18497 10.4854C2.7238 11.7645 3.63627 12.8578 4.80699 13.6269C5.97771 14.3961 7.3541 14.8066 8.76212 14.8066C10.5255 14.8066 12.1464 14.1713 13.395 13.1159L13.6907 13.4174V14.2682L19.1669 19.642L20.7988 18.0374L15.3335 12.6528ZM8.76212 12.6528C6.03497 12.6528 3.83355 10.4882 3.83355 7.80664C3.83355 5.12511 6.03497 2.96049 8.76212 2.96049C11.4893 2.96049 13.6907 5.12511 13.6907 7.80664C13.6907 10.4882 11.4893 12.6528 8.76212 12.6528Z" fill="white"/>
</svg>
