<svg width="35" height="34" viewBox="0 0 35 34" fill="none" xmlns="http://www.w3.org/2000/svg">
<path d="M30.1207 2.125H5.29203C3.93535 2.125 2.75 3.10117 2.75 4.44191V29.3257C2.75 30.6737 3.93535 31.875 5.29203 31.875H30.1134C31.4773 31.875 32.5 30.6657 32.5 29.3257V4.44191C32.508 3.10117 31.4773 2.125 30.1207 2.125ZM11.9718 26.9231H7.70988V13.6717H11.9718V26.9231ZM9.98828 11.657H9.95773C8.59375 11.657 7.71055 10.6416 7.71055 9.37059C7.71055 8.07633 8.61699 7.08488 10.0115 7.08488C11.4061 7.08488 12.2594 8.06902 12.2899 9.37059C12.2893 10.6416 11.4061 11.657 9.98828 11.657ZM27.5481 26.9231H23.2861V19.6775C23.2861 17.9416 22.6659 16.7556 21.1239 16.7556C19.9459 16.7556 19.2486 17.5525 18.9385 18.3288C18.8223 18.6077 18.7911 18.9875 18.7911 19.3754V26.9231H14.5291V13.6717H18.7911V15.5158C19.4113 14.6326 20.3802 13.3616 22.6347 13.3616C25.4324 13.3616 27.5488 15.2057 27.5488 19.1814L27.5481 26.9231Z" fill="white"/>
</svg>
