<svg width="31" height="30" viewBox="0 0 31 30" fill="none" xmlns="http://www.w3.org/2000/svg">
<g clip-path="url(#clip0_2_510)">
<path d="M15.5 27C14.28 26.1871 12.97 25.5634 11.57 25.1288C10.17 24.6942 8.73 24.4764 7.25 24.4754C6.47 24.4754 5.703 24.5386 4.949 24.665C4.196 24.7924 3.463 24.9966 2.75 25.2776C2.206 25.4885 1.695 25.4249 1.217 25.0865C0.739 24.7481 0.5 24.2804 0.5 23.6835V9.58738C0.5 9.22665 0.5975 8.89169 0.7925 8.5825C0.9875 8.2733 1.261 8.05842 1.613 7.93786C2.494 7.5606 3.4105 7.2869 4.3625 7.11674C5.3145 6.94659 6.277 6.86151 7.25 6.86151C8.889 6.86151 10.344 7.06326 11.615 7.46677C12.885 7.87028 14.184 8.46971 15.512 9.26506C15.748 9.39146 15.93 9.56162 16.058 9.77552C16.186 9.98943 16.25 10.2349 16.25 10.512V24.8838C17.466 24.2245 18.6925 23.7481 19.9295 23.4545C21.1665 23.1608 22.44 23.015 23.75 23.0169C24.65 23.0169 25.459 23.0709 26.177 23.1788C26.895 23.2867 27.5285 23.4306 28.0775 23.6105C28.3075 23.7039 28.519 23.6898 28.712 23.5682C28.905 23.4467 29.001 23.2551 29 22.9936V7.78326C29.087 7.81146 29.172 7.84257 29.255 7.8766C29.339 7.90966 29.421 7.94855 29.501 7.99328C29.834 8.13426 30.084 8.34963 30.251 8.63938C30.418 8.92913 30.501 9.24513 30.5 9.58738V23.6835C30.5 24.2804 30.242 24.7389 29.726 25.0588C29.209 25.3777 28.659 25.4317 28.076 25.2207C27.382 24.9581 26.673 24.7685 25.949 24.6519C25.225 24.5342 24.492 24.4754 23.75 24.4754C22.27 24.4754 20.83 24.6932 19.43 25.1288C18.03 25.5644 16.72 26.1876 15.5 26.9985M20.288 20.0431V5.45847L24.962 4V18.5847L20.288 20.0431Z" fill="white"/>
</g>
<defs>
<clipPath id="clip0_2_510">
<rect width="30" height="30" fill="white" transform="translate(0.5)"/>
</clipPath>
</defs>
</svg>
