<svg width="23" height="24" viewBox="0 0 23 24" fill="none" xmlns="http://www.w3.org/2000/svg">
<path d="M11.6371 14.3771C10.7359 14.3771 9.96995 14.0617 9.33913 13.4309C8.70832 12.8001 8.39292 12.0341 8.39292 11.1329V4.64456C8.39292 3.74341 8.70832 2.97742 9.33913 2.34661C9.96995 1.7158 10.7359 1.40039 11.6371 1.40039C12.5383 1.40039 13.3042 1.7158 13.935 2.34661C14.5659 2.97742 14.8813 3.74341 14.8813 4.64456V11.1329C14.8813 12.0341 14.5659 12.8001 13.935 13.4309C13.3042 14.0617 12.5383 14.3771 11.6371 14.3771ZM10.5557 20.8654V18.6215C8.89757 18.3872 7.47842 17.6843 6.29826 16.5128C5.1181 15.3413 4.4015 13.9175 4.14846 12.2413C4.11241 11.9349 4.19351 11.6736 4.39177 11.4573C4.59002 11.2411 4.84235 11.1329 5.14874 11.1329C5.45514 11.1329 5.71215 11.2367 5.91977 11.4444C6.1274 11.652 6.2669 11.9086 6.33827 12.2143C6.5906 13.4759 7.21708 14.5123 8.21773 15.3233C9.21838 16.1343 10.3582 16.5399 11.6371 16.5399C12.9348 16.5399 14.0792 16.13 15.0705 15.3103C16.0618 14.4906 16.6836 13.4586 16.9359 12.2143C17.008 11.9079 17.1479 11.6513 17.3555 11.4444C17.5631 11.2374 17.8198 11.1336 18.1254 11.1329C18.4311 11.1322 18.6834 11.2403 18.8824 11.4573C19.0814 11.6743 19.1625 11.9357 19.1257 12.2413C18.8734 13.8814 18.1615 15.2963 16.99 16.4858C15.8185 17.6753 14.3946 18.3872 12.7185 18.6215V20.8654C12.7185 21.1718 12.6147 21.4288 12.407 21.6365C12.1994 21.8441 11.9428 21.9475 11.6371 21.9468C11.3314 21.9461 11.0748 21.8423 10.8671 21.6354C10.6595 21.4285 10.5557 21.1718 10.5557 20.8654ZM11.6371 12.2143C11.9435 12.2143 12.2005 12.1105 12.4081 11.9029C12.6158 11.6952 12.7192 11.4386 12.7185 11.1329V4.64456C12.7185 4.33817 12.6147 4.08152 12.407 3.87461C12.1994 3.66771 11.9428 3.56389 11.6371 3.56317C11.3314 3.56245 11.0748 3.66627 10.8671 3.87461C10.6595 4.08296 10.5557 4.33961 10.5557 4.64456V11.1329C10.5557 11.4393 10.6595 11.6963 10.8671 11.9039C11.0748 12.1116 11.3314 12.215 11.6371 12.2143Z" fill="white"/>
</svg>
