<svg width="24" height="24" viewBox="0 0 24 24" fill="none" xmlns="http://www.w3.org/2000/svg">
<path d="M20.8667 22.5L13.5167 15.15C12.9333 15.6167 12.2625 15.9861 11.5042 16.2583C10.7458 16.5306 9.93889 16.6667 9.08333 16.6667C6.96389 16.6667 5.17033 15.9328 3.70267 14.4652C2.23422 12.9967 1.5 11.2028 1.5 9.08333C1.5 6.96389 2.23422 5.16994 3.70267 3.7015C5.17033 2.23383 6.96389 1.5 9.08333 1.5C11.2028 1.5 12.9967 2.23383 14.4652 3.7015C15.9328 5.16994 16.6667 6.96389 16.6667 9.08333C16.6667 9.93889 16.5306 10.7458 16.2583 11.5042C15.9861 12.2625 15.6167 12.9333 15.15 13.5167L22.5 20.8667L20.8667 22.5ZM9.08333 14.3333C10.5417 14.3333 11.7814 13.8231 12.8027 12.8027C13.8231 11.7814 14.3333 10.5417 14.3333 9.08333C14.3333 7.625 13.8231 6.38522 12.8027 5.364C11.7814 4.34356 10.5417 3.83333 9.08333 3.83333C7.625 3.83333 6.38522 4.34356 5.364 5.364C4.34356 6.38522 3.83333 7.625 3.83333 9.08333C3.83333 10.5417 4.34356 11.7814 5.364 12.8027C6.38522 13.8231 7.625 14.3333 9.08333 14.3333Z" fill="white"/>
</svg>
