<svg width="26" height="26" viewBox="0 0 26 26" fill="none" xmlns="http://www.w3.org/2000/svg">
<path d="M4 18.802V14.002C4 13.5498 3.99961 13.1606 4.02149 12.8398C4.04399 12.5101 4.09354 12.1802 4.22852 11.8543C4.53299 11.1192 5.11726 10.535 5.85235 10.2305V10.2301C6.17821 10.0952 6.50812 10.0459 6.83789 10.0234C7.15873 10.0016 7.54814 10.002 8.00039 10.002C8.5526 10.002 9.00039 10.4497 9.00039 11.002C9.00039 11.5542 8.5526 12.0019 8.00039 12.002C7.52077 12.002 7.21082 12.0026 6.97383 12.0187C6.7461 12.0343 6.65925 12.0609 6.61758 12.0781C6.40318 12.1669 6.22701 12.3272 6.11836 12.5301L6.07617 12.6195C6.05894 12.6611 6.03235 12.7479 6.0168 12.9758C6.00063 13.2127 6 13.5223 6 14.002V18.802C6 19.3785 6.00068 19.7508 6.02383 20.034C6.04601 20.3053 6.08378 20.406 6.10899 20.4555L6.14766 20.5246C6.23028 20.6594 6.34323 20.7726 6.47695 20.8547L6.5457 20.893V20.8934C6.5949 20.9184 6.69554 20.9559 6.9668 20.9781C7.24973 21.0012 7.62144 21.002 8.19688 21.002H17.8035C18.379 21.002 18.7505 21.0012 19.0332 20.9781C19.3041 20.956 19.4046 20.9185 19.4539 20.8934V20.893C19.6417 20.7973 19.795 20.6439 19.891 20.4555H19.8914C19.9165 20.4061 19.954 20.3056 19.9762 20.0348C19.9993 19.752 20 19.3805 20 18.8051V14.002C20 13.5224 19.9994 13.2127 19.9832 12.9758C19.9676 12.7481 19.9411 12.6612 19.9238 12.6195C19.8349 12.4048 19.6745 12.2289 19.4719 12.1203L19.3828 12.0781C19.3411 12.0609 19.2541 12.0343 19.0262 12.0187C18.7892 12.0026 18.4796 12.002 18 12.002C17.4477 12.002 17 11.5542 17 11.002C17 10.4497 17.4477 10.002 18 10.002C18.4523 10.002 18.8417 10.0016 19.1625 10.0234C19.4923 10.0459 19.8222 10.0952 20.148 10.2301V10.2305C20.8833 10.5351 21.4671 11.1195 21.7715 11.8543C21.9064 12.18 21.956 12.5097 21.9785 12.8395C22.0004 13.1603 22 13.5496 22 14.002V18.8051C22 19.3475 22.0009 19.8145 21.9695 20.1977C21.9372 20.5925 21.8657 20.9856 21.673 21.3637C21.3857 21.9277 20.9267 22.3873 20.3621 22.675C19.984 22.8677 19.591 22.9392 19.1961 22.9715C18.813 23.0028 18.3459 23.002 17.8035 23.002H8.19688C7.65442 23.002 7.18719 23.0028 6.80391 22.9715C6.40902 22.9392 6.01606 22.8677 5.63789 22.675C5.07249 22.387 4.61409 21.9271 4.32696 21.3637C4.13418 20.9854 4.06278 20.5922 4.03047 20.1969C3.99912 19.8133 4 19.3455 4 18.802ZM12 14.002V6.41602L10.707 7.70898C10.3165 8.09951 9.68349 8.09951 9.29297 7.70898C8.90245 7.31846 8.90245 6.68545 9.29297 6.29492L12.293 3.29492L12.3687 3.22617C12.7615 2.90578 13.3409 2.92879 13.707 3.29492L16.707 6.29492L16.7758 6.3707C17.0962 6.76348 17.0732 7.34285 16.707 7.70898C16.3409 8.07511 15.7615 8.09812 15.3687 7.77773L15.293 7.70898L14 6.41602V14.002C14 14.5542 13.5523 15.002 13 15.002C12.4477 15.002 12 14.5542 12 14.002Z" fill="#275F9E"/>
</svg>
