<svg width="33" height="34" viewBox="0 0 33 34" fill="none" xmlns="http://www.w3.org/2000/svg">
<g clip-path="url(#clip0_2_415)">
<path d="M16.9717 2.03418C20.9832 2.03418 21.4802 2.06387 23.0518 2.12207C24.6115 2.18096 25.7078 2.44644 26.6875 2.83203H26.6885C27.7002 3.21885 28.5389 3.72742 29.374 4.5625C30.2084 5.39695 30.7168 6.23442 31.1035 7.24512L31.2422 7.61914C31.5527 8.50738 31.7629 9.51844 31.8145 10.8848C31.8727 12.4562 31.9014 12.9526 31.9014 16.9639C31.9014 20.9754 31.8727 21.4724 31.8145 23.0439C31.7556 24.6038 31.4891 25.7 31.1035 26.6797L31.1045 26.6807C30.7177 27.6923 30.2091 28.5311 29.374 29.3662C28.5389 30.2013 27.7002 30.7099 26.6885 31.0967L26.6875 31.0957C25.7078 31.4813 24.6116 31.7478 23.0518 31.8066C21.4802 31.8648 20.9832 31.8936 16.9717 31.8936C12.9604 31.8936 12.464 31.8648 10.8926 31.8066C9.33194 31.7477 8.23498 31.4816 7.25488 31.0957C6.24342 30.7089 5.40524 30.2011 4.57031 29.3662C3.73523 28.5311 3.22666 27.6923 2.83984 26.6807V26.6797C2.45426 25.7 2.18877 24.6037 2.12988 23.0439C2.07168 21.4724 2.04199 20.9754 2.04199 16.9639C2.04199 12.9526 2.07168 12.4562 2.12988 10.8848C2.18881 9.32327 2.45456 8.22562 2.84082 7.24512C3.22754 6.23439 3.73582 5.39699 4.57031 4.5625C5.30107 3.83174 6.03413 3.35131 6.88379 2.9834L7.25488 2.83203C8.23493 2.44615 9.33203 2.18096 10.8926 2.12207C12.464 2.06387 12.9604 2.03418 16.9717 2.03418ZM16.9717 4.35156C13.8358 4.35156 12.7753 4.36776 11.7559 4.40039L10.6748 4.43848C9.19699 4.49535 8.3762 4.77704 7.83691 4.97559C6.46342 5.53634 5.54504 6.45647 4.98438 7.83008C4.81073 8.30175 4.57339 8.98842 4.47852 10.1416L4.44629 10.667C4.38828 12.2912 4.35938 12.7828 4.35938 16.9639C4.35938 21.1447 4.38829 21.6369 4.44629 23.2607C4.50313 24.7387 4.78582 25.5593 4.98438 26.0986L5.09375 26.3506C5.66082 27.5834 6.54682 28.4234 7.83105 28.9492C8.37025 29.1479 9.1916 29.4322 10.6748 29.4893L11.7559 29.5273C12.7754 29.56 13.8358 29.5762 16.9717 29.5762C21.1525 29.5762 21.6447 29.5473 23.2686 29.4893C24.7519 29.4322 25.5731 29.1479 26.1123 28.9492C27.4805 28.3891 28.3969 27.4727 28.957 26.1045C29.1557 25.5653 29.44 24.7441 29.4971 23.2607C29.5551 21.6369 29.584 21.1447 29.584 16.9639C29.584 13.828 29.5678 12.7675 29.5352 11.748L29.4971 10.667C29.44 9.18378 29.1557 8.36244 28.957 7.82324H28.9561C28.3951 6.45352 27.4776 5.53635 26.1064 4.97656V4.97559C25.5671 4.77704 24.7462 4.49531 23.2686 4.43848V4.4375C21.6448 4.3795 21.1525 4.35156 16.9717 4.35156ZM16.9717 9.20996C21.2656 9.20996 24.7255 12.6699 24.7256 16.9639C24.7256 21.2579 21.2657 24.7178 16.9717 24.7178C12.6777 24.7176 9.21777 21.2578 9.21777 16.9639C9.2179 12.67 12.6778 9.21009 16.9717 9.20996ZM16.9717 11.2666C13.8284 11.2667 11.2745 13.8206 11.2744 16.9639C11.2744 20.1072 13.8283 22.662 16.9717 22.6621C20.1151 22.6621 22.6699 20.1073 22.6699 16.9639C22.6698 13.8205 20.115 11.2666 16.9717 11.2666ZM24.8164 7.11816C25.9145 7.1183 26.8174 8.02195 26.8174 9.12012C26.8172 10.2266 25.9058 11.0634 24.8164 11.0635C23.7182 11.0635 22.8732 10.2182 22.873 9.12012C22.873 8.03053 23.7097 7.11816 24.8164 7.11816Z" fill="white" stroke="white" stroke-width="0.4"/>
</g>
<defs>
<clipPath id="clip0_2_415">
<rect width="32" height="34" fill="white" transform="translate(0.875)"/>
</clipPath>
</defs>
</svg>
