<svg width="57" height="39" viewBox="0 0 57 39" fill="none" xmlns="http://www.w3.org/2000/svg">
<rect width="57" height="39" fill="white"/>
<rect y="36" width="57" height="3" fill="#B22234"/>
<rect y="30" width="57" height="3" fill="#B22234"/>
<rect y="24" width="57" height="3" fill="#B22234"/>
<rect y="18" width="57" height="3" fill="#B22234"/>
<rect y="12" width="57" height="3" fill="#B22234"/>
<rect y="6" width="57" height="3" fill="#B22234"/>
<rect width="57" height="3" fill="#B22234"/>
<rect width="28.5" height="21" fill="#3C3B6E"/>
<path fill-rule="evenodd" clip-rule="evenodd" d="M25.5 18.4014L24.8387 18.9101L25.1182 18.124L24.4301 17.6524L25.264 17.6752L25.5 16.875L25.736 17.6752L26.5699 17.6524L25.8818 18.124L26.1613 18.9101L25.5 18.4014Z" fill="white"/>
<path fill-rule="evenodd" clip-rule="evenodd" d="M21 18.4014L20.3387 18.9101L20.6182 18.124L19.9301 17.6524L20.764 17.6752L21 16.875L21.236 17.6752L22.0699 17.6524L21.3818 18.124L21.6613 18.9101L21 18.4014Z" fill="white"/>
<path fill-rule="evenodd" clip-rule="evenodd" d="M16.5 18.4014L15.8387 18.9101L16.1182 18.124L15.4301 17.6524L16.264 17.6752L16.5 16.875L16.736 17.6752L17.5699 17.6524L16.8818 18.124L17.1613 18.9101L16.5 18.4014Z" fill="white"/>
<path fill-rule="evenodd" clip-rule="evenodd" d="M12 18.4014L11.3387 18.9101L11.6182 18.124L10.9301 17.6524L11.764 17.6752L12 16.875L12.236 17.6752L13.0699 17.6524L12.3818 18.124L12.6613 18.9101L12 18.4014Z" fill="white"/>
<path fill-rule="evenodd" clip-rule="evenodd" d="M7.5 18.4014L6.83874 18.9101L7.11821 18.124L6.43006 17.6524L7.26404 17.6752L7.5 16.875L7.73596 17.6752L8.56994 17.6524L7.88179 18.124L8.16126 18.9101L7.5 18.4014Z" fill="white"/>
<path fill-rule="evenodd" clip-rule="evenodd" d="M3 18.4014L2.33874 18.9101L2.61821 18.124L1.93006 17.6524L2.76404 17.6752L3 16.875L3.23596 17.6752L4.06994 17.6524L3.38179 18.124L3.66126 18.9101L3 18.4014Z" fill="white"/>
<path fill-rule="evenodd" clip-rule="evenodd" d="M23.25 16.5264L22.5887 17.0351L22.8682 16.249L22.1801 15.7774L23.014 15.8002L23.25 15L23.486 15.8002L24.3199 15.7774L23.6318 16.249L23.9113 17.0351L23.25 16.5264Z" fill="white"/>
<path fill-rule="evenodd" clip-rule="evenodd" d="M18.75 16.5264L18.0887 17.0351L18.3682 16.249L17.6801 15.7774L18.514 15.8002L18.75 15L18.986 15.8002L19.8199 15.7774L19.1318 16.249L19.4113 17.0351L18.75 16.5264Z" fill="white"/>
<path fill-rule="evenodd" clip-rule="evenodd" d="M14.25 16.5264L13.5887 17.0351L13.8682 16.249L13.1801 15.7774L14.014 15.8002L14.25 15L14.486 15.8002L15.3199 15.7774L14.6318 16.249L14.9113 17.0351L14.25 16.5264Z" fill="white"/>
<path fill-rule="evenodd" clip-rule="evenodd" d="M9.75 16.5264L9.08874 17.0351L9.36821 16.249L8.68006 15.7774L9.51404 15.8002L9.75 15L9.98596 15.8002L10.8199 15.7774L10.1318 16.249L10.4113 17.0351L9.75 16.5264Z" fill="white"/>
<path fill-rule="evenodd" clip-rule="evenodd" d="M5.25 16.5264L4.58874 17.0351L4.86821 16.249L4.18006 15.7774L5.01404 15.8002L5.25 15L5.48596 15.8002L6.31994 15.7774L5.63179 16.249L5.91126 17.0351L5.25 16.5264Z" fill="white"/>
<path fill-rule="evenodd" clip-rule="evenodd" d="M25.5 14.6514L24.8387 15.1601L25.1182 14.374L24.4301 13.9024L25.264 13.9252L25.5 13.125L25.736 13.9252L26.5699 13.9024L25.8818 14.374L26.1613 15.1601L25.5 14.6514Z" fill="white"/>
<path fill-rule="evenodd" clip-rule="evenodd" d="M21 14.6514L20.3387 15.1601L20.6182 14.374L19.9301 13.9024L20.764 13.9252L21 13.125L21.236 13.9252L22.0699 13.9024L21.3818 14.374L21.6613 15.1601L21 14.6514Z" fill="white"/>
<path fill-rule="evenodd" clip-rule="evenodd" d="M16.5 14.6514L15.8387 15.1601L16.1182 14.374L15.4301 13.9024L16.264 13.9252L16.5 13.125L16.736 13.9252L17.5699 13.9024L16.8818 14.374L17.1613 15.1601L16.5 14.6514Z" fill="white"/>
<path fill-rule="evenodd" clip-rule="evenodd" d="M12 14.6514L11.3387 15.1601L11.6182 14.374L10.9301 13.9024L11.764 13.9252L12 13.125L12.236 13.9252L13.0699 13.9024L12.3818 14.374L12.6613 15.1601L12 14.6514Z" fill="white"/>
<path fill-rule="evenodd" clip-rule="evenodd" d="M7.5 14.6514L6.83874 15.1601L7.11821 14.374L6.43006 13.9024L7.26404 13.9252L7.5 13.125L7.73596 13.9252L8.56994 13.9024L7.88179 14.374L8.16126 15.1601L7.5 14.6514Z" fill="white"/>
<path fill-rule="evenodd" clip-rule="evenodd" d="M3 14.6514L2.33874 15.1601L2.61821 14.374L1.93006 13.9024L2.76404 13.9252L3 13.125L3.23596 13.9252L4.06994 13.9024L3.38179 14.374L3.66126 15.1601L3 14.6514Z" fill="white"/>
<path fill-rule="evenodd" clip-rule="evenodd" d="M23.25 12.7764L22.5887 13.2851L22.8682 12.499L22.1801 12.0274L23.014 12.0502L23.25 11.25L23.486 12.0502L24.3199 12.0274L23.6318 12.499L23.9113 13.2851L23.25 12.7764Z" fill="white"/>
<path fill-rule="evenodd" clip-rule="evenodd" d="M18.75 12.7764L18.0887 13.2851L18.3682 12.499L17.6801 12.0274L18.514 12.0502L18.75 11.25L18.986 12.0502L19.8199 12.0274L19.1318 12.499L19.4113 13.2851L18.75 12.7764Z" fill="white"/>
<path fill-rule="evenodd" clip-rule="evenodd" d="M14.25 12.7764L13.5887 13.2851L13.8682 12.499L13.1801 12.0274L14.014 12.0502L14.25 11.25L14.486 12.0502L15.3199 12.0274L14.6318 12.499L14.9113 13.2851L14.25 12.7764Z" fill="white"/>
<path fill-rule="evenodd" clip-rule="evenodd" d="M9.75 12.7764L9.08874 13.2851L9.36821 12.499L8.68006 12.0274L9.51404 12.0502L9.75 11.25L9.98596 12.0502L10.8199 12.0274L10.1318 12.499L10.4113 13.2851L9.75 12.7764Z" fill="white"/>
<path fill-rule="evenodd" clip-rule="evenodd" d="M5.25 12.7764L4.58874 13.2851L4.86821 12.499L4.18006 12.0274L5.01404 12.0502L5.25 11.25L5.48596 12.0502L6.31994 12.0274L5.63179 12.499L5.91126 13.2851L5.25 12.7764Z" fill="white"/>
<path fill-rule="evenodd" clip-rule="evenodd" d="M25.5 10.9014L24.8387 11.4101L25.1182 10.624L24.4301 10.1524L25.264 10.1752L25.5 9.375L25.736 10.1752L26.5699 10.1524L25.8818 10.624L26.1613 11.4101L25.5 10.9014Z" fill="white"/>
<path fill-rule="evenodd" clip-rule="evenodd" d="M21 10.9014L20.3387 11.4101L20.6182 10.624L19.9301 10.1524L20.764 10.1752L21 9.375L21.236 10.1752L22.0699 10.1524L21.3818 10.624L21.6613 11.4101L21 10.9014Z" fill="white"/>
<path fill-rule="evenodd" clip-rule="evenodd" d="M16.5 10.9014L15.8387 11.4101L16.1182 10.624L15.4301 10.1524L16.264 10.1752L16.5 9.375L16.736 10.1752L17.5699 10.1524L16.8818 10.624L17.1613 11.4101L16.5 10.9014Z" fill="white"/>
<path fill-rule="evenodd" clip-rule="evenodd" d="M12 10.9014L11.3387 11.4101L11.6182 10.624L10.9301 10.1524L11.764 10.1752L12 9.375L12.236 10.1752L13.0699 10.1524L12.3818 10.624L12.6613 11.4101L12 10.9014Z" fill="white"/>
<path fill-rule="evenodd" clip-rule="evenodd" d="M7.5 10.9014L6.83874 11.4101L7.11821 10.624L6.43006 10.1524L7.26404 10.1752L7.5 9.375L7.73596 10.1752L8.56994 10.1524L7.88179 10.624L8.16126 11.4101L7.5 10.9014Z" fill="white"/>
<path fill-rule="evenodd" clip-rule="evenodd" d="M3 10.9014L2.33874 11.4101L2.61821 10.624L1.93006 10.1524L2.76404 10.1752L3 9.375L3.23596 10.1752L4.06994 10.1524L3.38179 10.624L3.66126 11.4101L3 10.9014Z" fill="white"/>
<path fill-rule="evenodd" clip-rule="evenodd" d="M23.25 9.02643L22.5887 9.53514L22.8682 8.74905L22.1801 8.27736L23.014 8.30023L23.25 7.5L23.486 8.30023L24.3199 8.27736L23.6318 8.74905L23.9113 9.53514L23.25 9.02643Z" fill="white"/>
<path fill-rule="evenodd" clip-rule="evenodd" d="M18.75 9.02643L18.0887 9.53514L18.3682 8.74905L17.6801 8.27736L18.514 8.30023L18.75 7.5L18.986 8.30023L19.8199 8.27736L19.1318 8.74905L19.4113 9.53514L18.75 9.02643Z" fill="white"/>
<path fill-rule="evenodd" clip-rule="evenodd" d="M14.25 9.02643L13.5887 9.53514L13.8682 8.74905L13.1801 8.27736L14.014 8.30023L14.25 7.5L14.486 8.30023L15.3199 8.27736L14.6318 8.74905L14.9113 9.53514L14.25 9.02643Z" fill="white"/>
<path fill-rule="evenodd" clip-rule="evenodd" d="M9.75 9.02643L9.08874 9.53514L9.36821 8.74905L8.68006 8.27736L9.51404 8.30023L9.75 7.5L9.98596 8.30023L10.8199 8.27736L10.1318 8.74905L10.4113 9.53514L9.75 9.02643Z" fill="white"/>
<path fill-rule="evenodd" clip-rule="evenodd" d="M5.25 9.02643L4.58874 9.53514L4.86821 8.74905L4.18006 8.27736L5.01404 8.30023L5.25 7.5L5.48596 8.30023L6.31994 8.27736L5.63179 8.74905L5.91126 9.53514L5.25 9.02643Z" fill="white"/>
<path fill-rule="evenodd" clip-rule="evenodd" d="M25.5 7.15143L24.8387 7.66014L25.1182 6.87405L24.4301 6.40236L25.264 6.42523L25.5 5.625L25.736 6.42523L26.5699 6.40236L25.8818 6.87405L26.1613 7.66014L25.5 7.15143Z" fill="white"/>
<path fill-rule="evenodd" clip-rule="evenodd" d="M21 7.15143L20.3387 7.66014L20.6182 6.87405L19.9301 6.40236L20.764 6.42523L21 5.625L21.236 6.42523L22.0699 6.40236L21.3818 6.87405L21.6613 7.66014L21 7.15143Z" fill="white"/>
<path fill-rule="evenodd" clip-rule="evenodd" d="M16.5 7.15143L15.8387 7.66014L16.1182 6.87405L15.4301 6.40236L16.264 6.42523L16.5 5.625L16.736 6.42523L17.5699 6.40236L16.8818 6.87405L17.1613 7.66014L16.5 7.15143Z" fill="white"/>
<path fill-rule="evenodd" clip-rule="evenodd" d="M12 7.15143L11.3387 7.66014L11.6182 6.87405L10.9301 6.40236L11.764 6.42523L12 5.625L12.236 6.42523L13.0699 6.40236L12.3818 6.87405L12.6613 7.66014L12 7.15143Z" fill="white"/>
<path fill-rule="evenodd" clip-rule="evenodd" d="M7.5 7.15143L6.83874 7.66014L7.11821 6.87405L6.43006 6.40236L7.26404 6.42523L7.5 5.625L7.73596 6.42523L8.56994 6.40236L7.88179 6.87405L8.16126 7.66014L7.5 7.15143Z" fill="white"/>
<path fill-rule="evenodd" clip-rule="evenodd" d="M3 7.15143L2.33874 7.66014L2.61821 6.87405L1.93006 6.40236L2.76404 6.42523L3 5.625L3.23596 6.42523L4.06994 6.40236L3.38179 6.87405L3.66126 7.66014L3 7.15143Z" fill="white"/>
<path fill-rule="evenodd" clip-rule="evenodd" d="M23.25 5.27643L22.5887 5.78514L22.8682 4.99905L22.1801 4.52736L23.014 4.55023L23.25 3.75L23.486 4.55023L24.3199 4.52736L23.6318 4.99905L23.9113 5.78514L23.25 5.27643Z" fill="white"/>
<path fill-rule="evenodd" clip-rule="evenodd" d="M18.75 5.27643L18.0887 5.78514L18.3682 4.99905L17.6801 4.52736L18.514 4.55023L18.75 3.75L18.986 4.55023L19.8199 4.52736L19.1318 4.99905L19.4113 5.78514L18.75 5.27643Z" fill="white"/>
<path fill-rule="evenodd" clip-rule="evenodd" d="M14.25 5.27643L13.5887 5.78514L13.8682 4.99905L13.1801 4.52736L14.014 4.55023L14.25 3.75L14.486 4.55023L15.3199 4.52736L14.6318 4.99905L14.9113 5.78514L14.25 5.27643Z" fill="white"/>
<path fill-rule="evenodd" clip-rule="evenodd" d="M9.75 5.27643L9.08874 5.78514L9.36821 4.99905L8.68006 4.52736L9.51404 4.55023L9.75 3.75L9.98596 4.55023L10.8199 4.52736L10.1318 4.99905L10.4113 5.78514L9.75 5.27643Z" fill="white"/>
<path fill-rule="evenodd" clip-rule="evenodd" d="M5.25 5.27643L4.58874 5.78514L4.86821 4.99905L4.18006 4.52736L5.01404 4.55023L5.25 3.75L5.48596 4.55023L6.31994 4.52736L5.63179 4.99905L5.91126 5.78514L5.25 5.27643Z" fill="white"/>
<path fill-rule="evenodd" clip-rule="evenodd" d="M25.5 3.40143L24.8387 3.91014L25.1182 3.12405L24.4301 2.65236L25.264 2.67523L25.5 1.875L25.736 2.67523L26.5699 2.65236L25.8818 3.12405L26.1613 3.91014L25.5 3.40143Z" fill="white"/>
<path fill-rule="evenodd" clip-rule="evenodd" d="M21 3.40143L20.3387 3.91014L20.6182 3.12405L19.9301 2.65236L20.764 2.67523L21 1.875L21.236 2.67523L22.0699 2.65236L21.3818 3.12405L21.6613 3.91014L21 3.40143Z" fill="white"/>
<path fill-rule="evenodd" clip-rule="evenodd" d="M16.5 3.40143L15.8387 3.91014L16.1182 3.12405L15.4301 2.65236L16.264 2.67523L16.5 1.875L16.736 2.67523L17.5699 2.65236L16.8818 3.12405L17.1613 3.91014L16.5 3.40143Z" fill="white"/>
<path fill-rule="evenodd" clip-rule="evenodd" d="M12 3.40143L11.3387 3.91014L11.6182 3.12405L10.9301 2.65236L11.764 2.67523L12 1.875L12.236 2.67523L13.0699 2.65236L12.3818 3.12405L12.6613 3.91014L12 3.40143Z" fill="white"/>
<path fill-rule="evenodd" clip-rule="evenodd" d="M7.5 3.40143L6.83874 3.91014L7.11821 3.12405L6.43006 2.65236L7.26404 2.67523L7.5 1.875L7.73596 2.67523L8.56994 2.65236L7.88179 3.12405L8.16126 3.91014L7.5 3.40143Z" fill="white"/>
<path fill-rule="evenodd" clip-rule="evenodd" d="M3 3.40143L2.33874 3.91014L2.61821 3.12405L1.93006 2.65236L2.76404 2.67523L3 1.875L3.23596 2.67523L4.06994 2.65236L3.38179 3.12405L3.66126 3.91014L3 3.40143Z" fill="white"/>
</svg>
