<svg width="107" height="58" viewBox="0 0 107 58" fill="none" xmlns="http://www.w3.org/2000/svg">
<path d="M16.4375 24.3042H21.3826L15.8453 18.6294C13.6036 16.157 12.1159 15.3212 8.85699 15.26L16.4375 24.3042Z" fill="white"/>
<path d="M7.55409 0.363636L3.73423 1.48677L3.70462 24.3042H7.58371L7.55409 0.363636Z" fill="white"/>
<path d="M15.786 7.81181L11.2851 14.196L21.0569 7.81181H15.786Z" fill="white"/>
<path d="M34.6121 8.47858C35.927 8.47858 36.9601 8.88277 37.7115 9.66006C38.4629 10.4684 38.8385 11.5567 38.8385 12.9247V24.3043H35.0817V12.7381C35.0817 11.8987 34.8312 11.2147 34.393 10.7172C33.9233 10.2197 33.2972 9.97098 32.5145 9.97098C31.1683 9.97098 29.8221 10.4374 28.5072 11.3079C29.196 10.4995 30.1352 9.81552 31.2622 9.28696C32.3893 8.75841 33.485 8.47858 34.6121 8.47858ZM39.0577 11.3079C39.7464 10.4995 40.6857 9.81552 41.8127 9.28696C42.9398 8.75841 44.0668 8.47858 45.1939 8.47858C46.5088 8.47858 47.5106 8.88277 48.262 9.66006C49.0133 10.4684 49.389 11.5567 49.389 12.9247V24.3043H45.6635V12.7381C45.6635 11.8987 45.413 11.2147 44.9747 10.7172C44.5051 10.2197 43.879 9.97098 43.0963 9.97098C41.7188 9.97098 40.3726 10.4374 39.0577 11.3079ZM28.2568 24.3043H24.5312V8.75841H28.2568V24.3043Z" fill="white"/>
<path d="M53.2175 16.8112C53.2175 14.5415 53.8436 12.676 55.1585 11.1836C56.4421 9.69116 58.164 8.85168 60.3555 8.63404C59.385 9.00714 58.6023 9.81552 58.0388 10.997C57.444 12.1785 57.1622 13.5776 57.1622 15.1944C57.1622 17.6195 57.6631 19.5161 58.7275 20.822C59.792 22.1589 61.2634 22.8119 63.1731 22.8119C65.1142 22.8119 66.7734 22.19 68.151 20.9464C67.3996 22.0968 66.4291 22.9984 65.2081 23.6203C63.9558 24.2732 62.5783 24.5841 61.013 24.5841C58.6336 24.5841 56.7239 23.9001 55.3151 22.501C53.9063 21.1018 53.2175 19.2052 53.2175 16.8112ZM57.5066 16.0339L64.8324 14.8524V14.386C64.8324 12.8625 64.582 11.5878 64.1437 10.5617C63.674 9.56679 63.0479 8.91386 62.2339 8.63404C64.0184 8.7895 65.4272 9.38024 66.4917 10.4063C67.5248 11.4634 68.057 12.8003 68.057 14.4171C68.057 15.0078 67.9631 15.5364 67.8379 16.0339H57.5066Z" fill="white"/>
<path d="M82.752 24.3354V1.26529L86.4775 0.736736V24.3354H82.752ZM70.9806 16.9355C70.9806 14.386 71.6067 12.334 72.859 10.8416C74.1113 9.34915 75.7705 8.57185 77.8994 8.57185C79.7152 8.57185 81.2493 9.1626 82.5015 10.3441C81.7502 9.72225 80.8423 9.38024 79.7778 9.38024C78.3377 9.38024 77.1794 10.0643 76.3028 11.4012C75.4262 12.7692 75.0192 14.5726 75.0192 16.8733C75.0192 18.8321 75.3322 20.3556 76.021 21.4749C76.6784 22.5942 77.5863 23.1539 78.7447 23.1539C80.0596 23.1539 81.3119 22.7186 82.5015 21.8169C81.9067 22.6564 81.0927 23.3404 80.0909 23.8379C79.0578 24.3354 77.9933 24.5841 76.9289 24.5841C75.0818 24.5841 73.6417 23.9001 72.5772 22.532C71.5128 21.164 70.9806 19.2985 70.9806 16.9355Z" fill="white"/>
<path d="M0 57.1061C1.12705 56.8262 2.00365 56.1422 2.6924 55.0229C3.38116 53.9036 3.72553 52.5667 3.72553 50.981V28.0353H7.63891V49.5508C7.63891 51.7272 6.95016 53.4994 5.57265 54.8675C4.19514 56.2355 2.31672 56.9817 0 57.1061Z" fill="white"/>
<path d="M11.4165 42.0266C11.4165 39.7569 12.0427 37.9225 13.3263 36.4922C14.6099 35.062 16.363 34.2536 18.5545 34.0671C17.584 34.4402 16.8327 35.3107 16.2691 36.7099C15.7056 38.1401 15.4551 39.9123 15.4551 42.0266C15.4551 44.1719 15.7056 45.9441 16.2691 47.3433C16.8327 48.7735 17.584 49.644 18.5545 49.9861C16.363 49.7995 14.6099 49.0222 13.3263 47.592C12.0427 46.1618 11.4165 44.3274 11.4165 42.0266ZM20.433 49.9861C21.4035 49.644 22.1548 48.7735 22.7184 47.3433C23.2819 45.9441 23.5637 44.1719 23.5637 42.0266C23.5637 39.9123 23.2819 38.1401 22.7184 36.7099C22.1548 35.3107 21.4035 34.4402 20.433 34.0671C22.6244 34.2536 24.3776 35.062 25.6612 36.4922C26.9135 37.9225 27.571 39.7569 27.571 42.0266C27.571 44.3274 26.9135 46.1618 25.6612 47.592C24.3776 49.0222 22.6244 49.7995 20.433 49.9861Z" fill="white"/>
<path d="M31.1204 45.3223V34.2536H34.8459V45.571C34.8459 46.566 35.0651 47.3122 35.566 47.8718C36.0669 48.4315 36.7243 48.6802 37.6009 48.6802C39.0411 48.6802 40.4499 48.1827 41.89 47.1567C41.1386 48.0273 40.1681 48.7113 38.9784 49.2709C37.7888 49.8306 36.6617 50.0793 35.5347 50.0793C34.1572 50.0793 33.0614 49.6751 32.2787 48.8046C31.4961 47.9651 31.1204 46.8147 31.1204 45.3223ZM42.1091 34.2536H45.866V49.7995H42.1091V34.2536Z" fill="white"/>
<path d="M54.0386 49.7995H50.313V34.2536H54.0386V49.7995ZM57.952 35.3729C57.3571 35.3729 56.731 35.5906 56.0422 35.9637C55.3535 36.3679 54.79 36.8964 54.289 37.5494C54.7586 36.4611 55.4474 35.5906 56.3553 34.9376C57.2632 34.3158 58.265 33.9738 59.3295 33.9738C60.3313 33.9738 61.114 34.2847 61.7088 34.8444C62.3036 35.4351 62.6167 36.1813 62.6167 37.1141C62.6167 37.8603 62.4289 38.4199 62.0845 38.8241C61.7088 39.2283 61.2079 39.4149 60.5817 39.4149C60.0808 39.4149 59.5799 39.3216 59.1416 39.0728C59.4547 38.5132 59.6112 37.8914 59.6112 37.2073C59.6112 36.6477 59.4547 36.2124 59.1416 35.8704C58.8286 35.5595 58.4529 35.3729 57.952 35.3729Z" fill="white"/>
<path d="M75.9877 33.9738C77.3652 33.9738 78.461 34.4091 79.2437 35.2175C80.0263 36.0259 80.4333 37.1452 80.4333 38.5754V49.7995H76.6765V38.3888C76.6765 37.4872 76.426 36.7721 75.9251 36.2435C75.4242 35.746 74.7354 35.4662 73.8589 35.4662C73.2014 35.4662 72.45 35.5906 71.6361 35.8393C70.8221 36.088 70.102 36.4301 69.5072 36.8032C70.2899 35.9948 71.2917 35.3107 72.4813 34.7822C73.671 34.2536 74.8607 33.9738 75.9877 33.9738ZM65.5312 34.2536H69.2567V49.7995H65.5312V34.2536Z" fill="white"/>
<path d="M94.6467 37.7981C94.6467 36.8032 94.3962 35.9637 93.9266 35.2797C93.4257 34.6267 92.7996 34.2536 92.0169 34.1293C94.0832 34.2225 95.6485 34.6578 96.7443 35.4351C97.8087 36.2435 98.3722 37.3317 98.3722 38.6997V47.3433C98.3722 47.7474 98.4662 48.0584 98.6853 48.3071C98.9045 48.5558 99.1862 48.6491 99.5619 48.6491C99.9376 48.6491 100.345 48.4936 100.783 48.1516C100.188 49.4264 99.1236 50.0482 97.6209 50.0482C96.6817 50.0482 95.9616 49.7995 95.4294 49.302C94.8972 48.8046 94.6467 48.1516 94.6467 47.3122V37.7981ZM83.9397 46.0685C83.9397 44.6694 84.5345 43.5812 85.7242 42.8039C86.9139 42.0266 88.5731 41.6224 90.702 41.6224C91.7978 41.6224 93.0187 41.7467 94.3963 41.9955C94.1771 41.9955 93.864 41.9644 93.4883 41.9644C91.7978 41.9644 90.4516 42.3064 89.4497 42.9904C88.4479 43.6744 87.947 44.6072 87.947 45.7887C87.947 46.6903 88.1975 47.4054 88.7297 47.9029C89.2619 48.4004 89.982 48.6491 90.9212 48.6491C92.2361 48.6491 93.4257 48.2138 94.4276 47.3122C93.9266 48.1827 93.1753 48.8357 92.2048 49.3331C91.2029 49.8306 90.1072 50.0793 88.8862 50.0793C87.3835 50.0793 86.1625 49.7373 85.2859 48.9911C84.378 48.276 83.9397 47.3122 83.9397 46.0685ZM86.9452 39.6947C86.2877 39.6947 85.7555 39.5081 85.3798 39.1039C85.0041 38.7308 84.8163 38.2023 84.8163 37.5183C84.8163 36.4611 85.2859 35.6528 86.2877 35.062C87.2583 34.5024 88.6671 34.1914 90.4829 34.1293C89.7002 34.2536 89.0741 34.5956 88.6358 35.1553C88.1662 35.7149 87.947 36.399 87.947 37.2384C87.947 37.9846 88.1035 38.6997 88.4166 39.3527C88.0096 39.6014 87.5087 39.6947 86.9452 39.6947Z" fill="white"/>
<path d="M103.274 49.7995V26.7605L107 26.2009V49.7995H103.274Z" fill="white"/>
</svg>
